<svg xmlns="http://www.w3.org/2000/svg" xmlns:xlink="http://www.w3.org/1999/xlink" version="1.1" x="0px" y="0px" viewBox="0 0 100.018 317.015" style="enable-background:new 0 0 100.018 253.612;" xml:space="preserve"><g><path d="M16.568,154.39c-0.39-6.649-0.566-12.707-0.566-18.222c-0.034-24.212,3.495-37.815,6.963-44.915v33.057v18.939v1.168h34.07   v-2.834h6.334v2.834h2.666v-2.834h6.334v2.834h4.688v-1.168V124.31V91.291c0.593,1.216,1.191,2.612,1.781,4.239   c2.817,7.813,5.189,20.631,5.18,40.639c0,5.515-0.176,11.572-0.566,18.224c-0.256,4.409,3.111,8.194,7.521,8.452   c0.16,0.009,0.318,0.014,0.477,0.014c4.204,0,7.729-3.282,7.978-7.533c0.404-6.935,0.591-13.301,0.591-19.156   c-0.039-30.182-4.86-46.887-11.434-56.93c-3.285-4.986-7.128-8.186-10.679-9.955c-3.315-1.674-6.237-2.088-8.055-2.131   c-0.173-0.012-0.347-0.025-0.522-0.025h-5.007l-2.145,16.768l-9.75-11.75l4.528-5.018H43.066l4.528,5.018l-9.75,11.75L35.7,67.128   h-5.007c-0.164,0-0.324,0.014-0.486,0.023c-1.816,0.039-4.756,0.449-8.094,2.131c-5.379,2.667-11.176,8.502-15.234,18.842   C2.773,98.503,0.015,113.51,0,136.168c0.002,5.856,0.19,12.224,0.596,19.157c0.25,4.253,3.777,7.533,7.982,7.533   c0.157,0,0.314-0.004,0.473-0.014C13.463,162.587,16.828,158.8,16.568,154.39z M52.01,93.351l6.255-0.213l3.313-5.311l3.312,5.311   l6.254,0.213l-2.941,5.524l2.941,5.524l-6.254,0.213l-3.312,5.311l-3.313-5.311l-6.255-0.213l2.942-5.524L52.01,93.351z    M29.261,94.75h14.75v4h-14.75V94.75z"/><path d="M77.057,148.167h-4.688v11.416h-6.334v-11.416h-2.666v11.416h-6.334v-11.416h-34.07v93.082   c0,6.83,5.537,12.363,12.363,12.363c6.828,0,12.365-5.533,12.365-12.363v-78.332h4.635v78.332c0,6.83,5.537,12.363,12.363,12.363   c6.828,0,12.365-5.533,12.365-12.363V148.167z"/><path d="M53.67,61.128C64.355,59.38,72.511,50.11,72.511,38.929c0-1.688-0.192-3.33-0.544-4.912l8.41-9.094l-5.562-14.029L50.011,0   L25.206,10.894l-5.562,14.029l8.41,9.094c-0.352,1.582-0.544,3.224-0.544,4.912c0,11.181,8.155,20.451,18.841,22.199   c1.191,0.195,2.412,0.301,3.659,0.301C51.258,61.429,52.479,61.323,53.67,61.128z M50.011,7.219c2.458,0,4.448,1.973,4.491,4.419   c2.5-0.351,5.509-0.836,5.509-0.836s-3.463,2.821-6.587,3.819c-0.825,0.97-2.039,1.598-3.413,1.598   c-1.374,0-2.588-0.628-3.413-1.598c-3.124-0.997-6.587-3.819-6.587-3.819s3.009,0.485,5.509,0.836   C45.563,9.192,47.553,7.219,50.011,7.219z M50.011,21.553c12.15,0,22,3.135,22,7c0,0.575-0.222,1.133-0.633,1.667   c-2.351-3.061-11.022-5.333-21.367-5.333c-10.345,0-19.017,2.272-21.367,5.333c-0.411-0.534-0.633-1.092-0.633-1.667   C28.011,24.688,37.86,21.553,50.011,21.553z"/></g><text x="0" y="268.61199999999997" fill="#000000" font-size="5px" font-weight="bold" font-family="'Helvetica Neue', Helvetica, Arial-Unicode, Arial, Sans-serif">Created by Gan Khoon Lay</text><text x="0" y="273.61199999999997" fill="#000000" font-size="5px" font-weight="bold" font-family="'Helvetica Neue', Helvetica, Arial-Unicode, Arial, Sans-serif">from the Noun Project</text></svg>